<svg width="0" height="0" class="hidden">
  <symbol xmlns="http://www.w3.org/2000/svg" viewBox="0 0 16 11" id="tick">
    <defs></defs>
    <path id="Shape_10_copy_5" d="M2,4L6,8l8-8"></path>
  </symbol>
  <symbol xmlns="http://www.w3.org/2000/svg" viewBox="0 0 50 2" id="line">
    <path fill="#63c3ef" d="M0 0h50v2H0z"></path>
  </symbol>
  <symbol id="menu" enable-background="new 0 0 24 24" xmlns="http://www.w3.org/2000/svg" viewBox="0 0 24 24">
    <g>
      <path d="m21.5 24h-19c-1.379 0-2.5-1.122-2.5-2.5v-19c0-1.378 1.121-2.5 2.5-2.5h19c1.379 0 2.5 1.122 2.5 2.5v19c0 1.378-1.121 2.5-2.5 2.5zm-19-23c-.827 0-1.5.673-1.5 1.5v19c0 .827.673 1.5 1.5 1.5h19c.827 0 1.5-.673 1.5-1.5v-19c0-.827-.673-1.5-1.5-1.5z"></path>
    </g>
    <g>
      <path d="m16.5 8h-9c-.276 0-.5-.224-.5-.5s.224-.5.5-.5h9c.276 0 .5.224.5.5s-.224.5-.5.5z"></path>
    </g>
    <g>
      <path d="m16.5 12.5h-9c-.276 0-.5-.224-.5-.5s.224-.5.5-.5h9c.276 0 .5.224.5.5s-.224.5-.5.5z"></path>
    </g>
    <g>
      <path d="m16.5 17h-9c-.276 0-.5-.224-.5-.5s.224-.5.5-.5h9c.276 0 .5.224.5.5s-.224.5-.5.5z"></path>
    </g>
  </symbol>
  <symbol id="search" xmlns="http://www.w3.org/2000/svg" viewBox="0 0 21.8 23.8">
    <defs></defs>
    <path d="M11,17.9a8.7,8.7,0,0,0,.8,4.8,1,1,0,0,0,1.2.4.8.8,0,0,0,.4-1.2,8.3,8.3,0,0,1-.7-3.8,7.6,7.6,0,0,1,15.2,1.1A7.7,7.7,0,0,1,16.1,25a.8.8,0,0,0-1.2.2.9.9,0,0,0,.2,1.3A10,10,0,0,0,19.6,28a9.3,9.3,0,0,0,6.1-1.7l5.5,6.4a.9.9,0,0,0,.6.3.7.7,0,0,0,.7-.2.9.9,0,0,0,.1-1.2L27,25.2a8.9,8.9,0,0,0,2.6-5.8A9.3,9.3,0,1,0,11,17.9Z" transform="translate(-10.9 -9.3)"></path>
  </symbol>
  <symbol id="chevron" xmlns="http://www.w3.org/2000/svg" viewBox="0 0 51 51">
    <defs></defs>
    <circle cx="25.5" cy="25.5" r="25.5"></circle>
    <rect x="24.4" y="27.9" width="1.6" height="15.24" rx="0.8" transform="matrix(0.78, -0.63, 0.63, 0.78, -21.26, 15.39)"></rect>
    <rect x="33.3" y="27.9" width="1.6" height="15.24" rx="0.8" transform="translate(24 -21.9) rotate(37.3)"></rect>
  </symbol>
  <symbol version="1.1" id="quotes" xmlns="http://www.w3.org/2000/svg" xmlns:xlink="http://www.w3.org/1999/xlink" x="0px" y="0px" xml:space="preserve" viewBox="0 0 508.044 508.044">
    <g>
      <g>
        <path d="M0.108,352.536c0,66.794,54.144,120.938,120.937,120.938c66.794,0,120.938-54.144,120.938-120.938
			s-54.144-120.937-120.938-120.937c-13.727,0-26.867,2.393-39.168,6.61C109.093,82.118,230.814-18.543,117.979,64.303
			C-7.138,156.17-0.026,348.84,0.114,352.371C0.114,352.426,0.108,352.475,0.108,352.536z"></path>
        <path d="M266.169,352.536c0,66.794,54.144,120.938,120.938,120.938s120.938-54.144,120.938-120.938S453.9,231.599,387.106,231.599
			c-13.728,0-26.867,2.393-39.168,6.61C375.154,82.118,496.875-18.543,384.04,64.303C258.923,156.17,266.034,348.84,266.175,352.371
			C266.175,352.426,266.169,352.475,266.169,352.536z"></path>
      </g>
    </g>
    <g></g>
    <g></g>
    <g></g>
    <g></g>
    <g></g>
    <g></g>
    <g></g>
    <g></g>
    <g></g>
    <g></g>
    <g></g>
    <g></g>
    <g></g>
    <g></g>
    <g></g>
  </symbol>
  <symbol id="snap" xmlns="http://www.w3.org/2000/svg" viewBox="0 0 512 512">
    <g fill="rgb(0,0,0)">
      <path d="m460.646 10h-416.708c-18.714 0-33.938 15.521-33.938 34.6v420.122c0 19.078 15.224 34.6 33.89 34.6 3.139.025 315.346 2.492 438.5 2.679h.03a19.282 19.282 0 0 0 13.827-5.813 19.917 19.917 0 0 0 5.753-14.418l-7.421-437.793c-.33-18.735-15.553-33.977-33.933-33.977zm-416.708 12h416.708c11.879 0 21.719 9.954 21.935 22.184l6.511 384.244-96.777-99.462a33.563 33.563 0 0 0 -54.35-3.721l-45.03 53.805a21.4 21.4 0 0 1 -18.452 7.764 21.636 21.636 0 0 1 -17.013-10.959l-81.253-140.576a33.583 33.583 0 0 0 -56.1-3.578l-98.117 113.313v-300.414c0-12.462 9.841-22.6 21.938-22.6zm443.767 465.764a7.377 7.377 0 0 1 -5.282 2.236h-.011c-123.12-.187-435.288-2.654-438.474-2.679-12.1 0-21.938-10.138-21.938-22.6v-101.375l107.321-123.946.271-.337a21.585 21.585 0 0 1 36.236 2.221l81.252 140.576a33.576 33.576 0 0 0 55.057 4.892l45.03-53.805a21.57 21.57 0 0 1 35.25 2.83l.356.591 106.615 109.572.612 36.028a8.007 8.007 0 0 1 -2.295 5.796z"></path>
      <path d="m284.988 218.5c29.7 0 53.864-24.671 53.864-54.995s-24.164-54.995-53.864-54.995-53.863 24.671-53.863 54.995 24.163 54.995 53.863 54.995zm0-97.99c23.084 0 41.864 19.287 41.864 42.995s-18.78 43-41.864 43-41.863-19.288-41.863-42.995 18.775-42.996 41.863-42.996z"></path>
    </g>
  </symbol>
  <symbol id="growth" enable-background="new 0 0 512 512" xmlns="http://www.w3.org/2000/svg" viewBox="0 0 512 512">
    <g>
      <g>
        <path d="m504.5 480.837h-38.97v-240.347c0-4.142-3.357-7.5-7.5-7.5s-7.5 3.358-7.5 7.5v240.347h-49.648l-.002-318.357h49.65v43.01c0 4.142 3.357 7.5 7.5 7.5s7.5-3.358 7.5-7.5v-50.51c0-4.142-3.357-7.5-7.5-7.5h-64.65c-4.143 0-7.5 3.358-7.5 7.5v43.012h-57.148c-4.143 0-7.5 3.358-7.5 7.5v43.008h-57.15c-4.143 0-7.5 3.358-7.5 7.5v43.008h-57.15c-4.143 0-7.5 3.358-7.5 7.5v43.008h-57.15c-4.143 0-7.5 3.358-7.5 7.5v38.964h-57.152c-4.143 0-7.5 3.358-7.5 7.5v20.89c0 4.142 3.357 7.5 7.5 7.5s7.5-3.358 7.5-7.5v-13.39h49.65v69.857h-49.65v-21.467c0-4.142-3.357-7.5-7.5-7.5s-7.5 3.358-7.5 7.5v21.467h-31.467v-473.337c0-4.142-3.357-7.5-7.5-7.5s-7.5 3.358-7.5 7.5v38.967h-8.663c-4.143 0-7.5 3.358-7.5 7.5s3.357 7.5 7.5 7.5h8.663v49.65h-8.663c-4.143 0-7.5 3.358-7.5 7.5s3.357 7.5 7.5 7.5h8.663v49.65h-8.663c-4.143 0-7.5 3.358-7.5 7.5s3.357 7.5 7.5 7.5h8.663v49.65h-8.663c-4.143 0-7.5 3.358-7.5 7.5s3.357 7.5 7.5 7.5h8.663v49.651h-8.663c-4.143 0-7.5 3.358-7.5 7.5s3.357 7.5 7.5 7.5h8.663v49.65h-8.663c-4.143 0-7.5 3.358-7.5 7.5s3.357 7.5 7.5 7.5h8.663v49.65h-8.663c-4.143 0-7.5 3.358-7.5 7.5s3.357 7.5 7.5 7.5h8.663v38.967c0 4.142 3.357 7.5 7.5 7.5h38.967v8.663c0 4.142 3.357 7.5 7.5 7.5s7.5-3.358 7.5-7.5v-8.66h49.65v8.66c0 4.142 3.357 7.5 7.5 7.5s7.5-3.358 7.5-7.5v-8.663h49.65v8.663c0 4.142 3.357 7.5 7.5 7.5s7.5-3.358 7.5-7.5v-8.663h49.65v8.663c0 4.142 3.357 7.5 7.5 7.5s7.5-3.358 7.5-7.5v-8.663h49.65v8.663c0 4.142 3.357 7.5 7.5 7.5s7.5-3.358 7.5-7.5v-8.663h49.65v8.663c0 4.142 3.357 7.5 7.5 7.5s7.5-3.358 7.5-7.5v-8.66h49.65v8.66c0 4.142 3.357 7.5 7.5 7.5s7.5-3.358 7.5-7.5v-8.663h38.97c4.143 0 7.5-3.358 7.5-7.5s-3.357-7.498-7.5-7.498zm-362.22-116.321h49.65v116.321h-49.65zm64.651-50.508h49.65v166.829h-49.65zm64.65-50.508h49.65v217.337h-49.65zm64.65-50.508h49.648v267.846h-49.648z"></path>
        <path d="m86.1 338.44c6.323 0 12.267-2.46 16.734-6.927l112.91-112.91c2.929-2.929 2.929-7.678 0-10.606-2.93-2.929-7.678-2.929-10.607 0l-112.909 112.909c-1.635 1.634-3.811 2.534-6.128 2.534-2.311 0-4.482-.9-6.116-2.533-1.64-1.64-2.543-3.817-2.543-6.13 0-2.311.901-4.484 2.543-6.123l263.521-263.52c2.145-2.145 2.786-5.371 1.625-8.173-1.16-2.803-3.896-4.63-6.929-4.63h-23.61c-4.775 0-8.66-3.889-8.66-8.67 0-4.775 3.885-8.66 8.66-8.66h62.63c4.775 0 8.66 3.885 8.66 8.66v62.63c0 4.781-3.885 8.67-8.66 8.67s-8.66-3.889-8.66-8.67v-23.611c0-3.034-1.827-5.768-4.63-6.929-2.804-1.161-6.027-.518-8.174 1.626l-125.88 125.88c-2.929 2.929-2.929 7.678 0 10.606 2.93 2.929 7.678 2.929 10.607 0l113.076-113.076v5.503c0 13.052 10.614 23.67 23.66 23.67s23.66-10.618 23.66-23.67v-62.63c0-13.046-10.614-23.66-23.66-23.66h-62.63c-13.046 0-23.66 10.614-23.66 23.66 0 13.052 10.614 23.67 23.66 23.67h5.504l-250.714 250.713c-4.475 4.469-6.939 10.412-6.939 16.733 0 6.32 2.463 12.264 6.937 16.737 4.466 4.467 10.405 6.927 16.722 6.927z"></path>
      </g>
    </g>
  </symbol>
  <symbol xmlns="http://www.w3.org/2000/svg" viewBox="0 0 512 512" id="easy">
    <g id="Out_line">
      <path d="m184 304h-112a8.00008 8.00008 0 0 0 -8 8v96a8.00008 8.00008 0 0 0 8 8h112a8.00008 8.00008 0 0 0 8-8v-96a8.00008 8.00008 0 0 0 -8-8zm-8 96h-96v-80h96z"></path>
      <path d="m96 336h32v16h-32z"></path>
      <path d="m128 368h32v16h-32z"></path>
      <path d="m380 64h-244v-40a7.99985 7.99985 0 0 0 -12.87793-6.34082l-104 80a8 8 0 0 0 0 12.68164l104 80a7.99985 7.99985 0 0 0 12.87793-6.34082v-40h216a64.07239 64.07239 0 0 1 64 64v144a63.89737 63.89737 0 0 1 -48 61.99341v-181.99341a8.00008 8.00008 0 0 0 -8-8h-336a8.00008 8.00008 0 0 0 -8 8v256a8.00008 8.00008 0 0 0 8 8h356a116.13134 116.13134 0 0 0 116-116v-200a116.13134 116.13134 0 0 0 -116-116zm-28 176v192h-112v-192zm-208 0v32h-32v-32zm-112 0h64v40a8.00008 8.00008 0 0 0 8 8h48a8.00008 8.00008 0 0 0 8-8v-40h64v192h-192zm448 140a100.113 100.113 0 0 1 -100 100h-348v-32h328a8.00008 8.00008 0 0 0 8-8v-9.605a79.86446 79.86446 0 0 0 64-78.395v-144a80.09041 80.09041 0 0 0 -80-80h-224a8.00008 8.00008 0 0 0 -8 8v31.75293l-82.87891-63.75293 82.87891-63.75293v31.75293a8.00008 8.00008 0 0 0 8 8h252a100.113 100.113 0 0 1 100 100z"></path>
      <path d="m320 400h16v16h-16z"></path>
      <path d="m288 400h16v16h-16z"></path>
      <path d="m256 400h16v16h-16z"></path>
    </g>
  </symbol>
</svg>